<svg width="33" height="21" viewBox="0 0 33 21" fill="none" xmlns="http://www.w3.org/2000/svg">
<path d="M16.3125 20.6133C25.7812 20.6133 32.3203 12.9609 32.3203 10.5703C32.3203 8.16797 25.7695 0.527344 16.3125 0.527344C6.97266 0.527344 0.292969 8.16797 0.292969 10.5703C0.292969 12.9609 6.96094 20.6133 16.3125 20.6133ZM16.3125 18.7617C8.58984 18.7617 2.34375 12.2227 2.34375 10.5703C2.34375 9.17578 8.58984 2.37891 16.3125 2.37891C24 2.37891 30.2695 9.17578 30.2695 10.5703C30.2695 12.2227 24 18.7617 16.3125 18.7617ZM16.3125 17.1328C19.957 17.1328 22.8867 14.1445 22.8867 10.5703C22.8867 6.90234 19.957 4.00781 16.3125 4.00781C12.6445 4.00781 9.70312 6.90234 9.71484 10.5703C9.73828 14.1445 12.6445 17.1328 16.3125 17.1328ZM16.3125 12.75C15.0938 12.75 14.1094 11.7656 14.1094 10.5703C14.1094 9.36328 15.0938 8.39062 16.3125 8.39062C17.5195 8.39062 18.5039 9.36328 18.5039 10.5703C18.5039 11.7656 17.5195 12.75 16.3125 12.75Z" fill="#212121"/>
</svg>
