<svg id="Слой_1" data-name="Слой 1" xmlns="http://www.w3.org/2000/svg" viewBox="0 0 64.66 96.7"><defs><style>.cls-1{fill:#666;}</style></defs><path class="cls-1" d="M35.92,77.65H65.74a2.13,2.13,0,0,0,2.31-2.26V68.8c0-10,14.45-16.39,14.45-34.19,0-18.73-12.68-31.25-31.67-31.25S19.2,15.88,19.2,34.61c0,17.8,14.46,24.22,14.46,34.19v6.59A2.11,2.11,0,0,0,35.92,77.65Zm3.87-8.77c0-12.11-14.37-18.57-14.37-34.22,0-15.08,10.17-25.08,25.41-25.08s25.45,10,25.45,25.08c0,15.65-14.37,22.11-14.37,34.22v2.55H39.79Zm-2.3,19.89H64.22a3.87,3.87,0,0,0,0-7.74H37.49a3.87,3.87,0,0,0,0,7.74ZM50.83,98.7c5.68,0,9.72-2.6,10.13-6.59H40.74C41.11,96.1,45.15,98.7,50.83,98.7Z" transform="translate(-17.85 -2)"/><path class="cls-1" d="M42,50.11h5.28a2,2,0,0,0,2.17-2,2.73,2.73,0,0,0-.83-1.84,3.9,3.9,0,0,1-1.13-2.58,3.4,3.4,0,0,1,6.8,0,3.91,3.91,0,0,1-1.14,2.58,2.74,2.74,0,0,0-.81,1.84,2,2,0,0,0,2.16,2h5.26c3.2,0,4.87-1.64,4.87-4.78V39.71c0-.25.18-.38.46-.17a6.1,6.1,0,0,0,3.5,1.22,5.77,5.77,0,0,0,5.71-6,5.78,5.78,0,0,0-5.71-5.95,6,6,0,0,0-3.5,1.23c-.28.2-.46.08-.46-.18V24.16c0-3.15-1.67-4.78-4.87-4.78H54.46a2,2,0,0,0-2.16,2,2.74,2.74,0,0,0,.81,1.84,3.93,3.93,0,0,1,1.14,2.59,3.4,3.4,0,0,1-6.8,0,3.92,3.92,0,0,1,1.13-2.59,2.73,2.73,0,0,0,.83-1.84,2,2,0,0,0-2.17-2H42c-3.18,0-4.85,1.63-4.85,4.78V29.9c0,.26-.17.38-.46.18a6,6,0,0,0-3.51-1.23,5.77,5.77,0,0,0-5.69,5.95,5.76,5.76,0,0,0,5.69,6,6.05,6.05,0,0,0,3.51-1.22c.29-.21.46-.08.46.17v5.62C37.11,48.47,38.78,50.11,42,50.11Zm0-2.56a2.13,2.13,0,0,1-2.34-2.35V38.43a2,2,0,0,0-2-2.18,2.71,2.71,0,0,0-1.84.82,4,4,0,0,1-2.59,1.15,3.41,3.41,0,0,1,0-6.82,3.93,3.93,0,0,1,2.59,1.14,2.73,2.73,0,0,0,1.84.83,2,2,0,0,0,2-2.18v-6.9A2.14,2.14,0,0,1,42,21.94h3.66c.75,0,.51.38.32.68a6,6,0,0,0-1.08,3.29,6,6,0,0,0,11.89,0,6,6,0,0,0-1.08-3.29c-.19-.3-.43-.68.32-.68h3.65A2.13,2.13,0,0,1,62,24.29v6.9a2,2,0,0,0,2,2.18,2.73,2.73,0,0,0,1.85-.83,3.87,3.87,0,0,1,2.57-1.14,3.41,3.41,0,0,1,0,6.82,3.88,3.88,0,0,1-2.57-1.15A2.72,2.72,0,0,0,64,36.25a2,2,0,0,0-2,2.18V45.2a2.13,2.13,0,0,1-2.34,2.35H56c-.75,0-.51-.38-.32-.68a6,6,0,0,0,1.08-3.28,5.95,5.95,0,0,0-11.89,0A6,6,0,0,0,46,46.87c.19.3.43.68-.32.68Z" transform="translate(-17.85 -2)"/><path d="M34.57,76.29H64.38A2.13,2.13,0,0,0,66.69,74V67.44c0-10,14.45-16.39,14.45-34.18C81.14,14.52,68.46,2,49.47,2S17.85,14.52,17.85,33.26c0,17.79,14.45,24.21,14.45,34.18V74A2.12,2.12,0,0,0,34.57,76.29Zm3.87-8.77C38.44,55.41,24.06,49,24.06,33.3c0-15.07,10.18-25.08,25.41-25.08s25.46,10,25.46,25.08c0,15.65-14.38,22.11-14.38,34.22v2.56H38.44ZM36.13,87.41H62.86a3.87,3.87,0,0,0,0-7.74H36.13a3.87,3.87,0,0,0,0,7.74Zm13.34,9.93c5.69,0,9.72-2.6,10.14-6.59H39.38C39.76,94.74,43.79,97.34,49.47,97.34Z" transform="translate(-17.85 -2)"/><path d="M40.61,48.76h5.28a2,2,0,0,0,2.16-2,2.73,2.73,0,0,0-.83-1.84,3.86,3.86,0,0,1-1.13-2.58,3.41,3.41,0,0,1,6.81,0,3.88,3.88,0,0,1-1.15,2.58,2.79,2.79,0,0,0-.81,1.84,2,2,0,0,0,2.16,2h5.27c3.19,0,4.86-1.64,4.86-4.79V38.36c0-.26.18-.39.46-.18a6,6,0,0,0,3.5,1.23,5.78,5.78,0,0,0,5.71-6,5.76,5.76,0,0,0-5.71-5.94,6.1,6.1,0,0,0-3.5,1.22c-.28.21-.46.08-.46-.17V22.81c0-3.15-1.67-4.79-4.86-4.79H53.1a2,2,0,0,0-2.16,2,2.8,2.8,0,0,0,.81,1.85,3.93,3.93,0,0,1,1.15,2.59,3.41,3.41,0,0,1-6.81,0,3.9,3.9,0,0,1,1.13-2.59A2.73,2.73,0,0,0,48.05,20a2,2,0,0,0-2.16-2H40.61c-3.18,0-4.85,1.64-4.85,4.79v5.74c0,.25-.18.38-.46.17a6.11,6.11,0,0,0-3.52-1.22,5.76,5.76,0,0,0-5.69,5.94,5.77,5.77,0,0,0,5.69,6,6,6,0,0,0,3.52-1.23c.28-.21.46-.08.46.18V44C35.76,47.12,37.43,48.76,40.61,48.76Zm0-2.56a2.13,2.13,0,0,1-2.33-2.36V37.07a2,2,0,0,0-2-2.18,2.69,2.69,0,0,0-1.85.83,3.91,3.91,0,0,1-2.59,1.14,3.41,3.41,0,0,1,0-6.82,3.93,3.93,0,0,1,2.59,1.15,2.72,2.72,0,0,0,1.85.82,2,2,0,0,0,2-2.18v-6.9a2.13,2.13,0,0,1,2.33-2.35h3.66c.75,0,.51.38.32.68a6,6,0,0,0-1.08,3.29,6,6,0,0,0,11.89,0,6,6,0,0,0-1.08-3.29c-.19-.3-.43-.68.32-.68h3.66a2.13,2.13,0,0,1,2.33,2.35v6.9a2,2,0,0,0,2,2.18,2.72,2.72,0,0,0,1.85-.82A3.88,3.88,0,0,1,67.07,30a3.41,3.41,0,0,1,0,6.82,3.87,3.87,0,0,1-2.58-1.14,2.69,2.69,0,0,0-1.85-.83,2,2,0,0,0-2,2.18v6.77a2.13,2.13,0,0,1-2.33,2.36H54.68c-.75,0-.51-.39-.32-.69a6,6,0,0,0,1.08-3.27,5.95,5.95,0,0,0-11.89,0,6,6,0,0,0,1.08,3.27c.19.3.43.69-.32.69Z" transform="translate(-17.85 -2)"/><path class="cls-1" d="M50.48,66C55.53,66,59,61.93,59,60.66s-3.49-5.36-8.53-5.36-8.54,4.08-8.54,5.36S45.49,66,50.48,66Zm0-1C46.36,65,43,61.54,43,60.66s3.33-4.37,7.45-4.37,7.44,3.62,7.44,4.37S54.58,65,50.48,65Zm0-.87A3.5,3.5,0,1,0,47,60.66,3.51,3.51,0,0,0,50.48,64.15Zm0-2.33a1.17,1.17,0,1,1,1.17-1.16A1.18,1.18,0,0,1,50.48,61.82Z" transform="translate(-17.85 -2)"/><path d="M49.12,64.65c5.05,0,8.53-4.08,8.53-5.35S54.16,54,49.12,54,40.58,58,40.58,59.3,44.14,64.65,49.12,64.65Zm0-1c-4.11,0-7.44-3.49-7.44-4.37s3.33-4.37,7.44-4.37,7.44,3.63,7.44,4.37S53.22,63.67,49.12,63.67Zm0-.87a3.53,3.53,0,0,0,3.51-3.5,3.51,3.51,0,0,0-7,0A3.53,3.53,0,0,0,49.12,62.8Zm0-2.34a1.16,1.16,0,1,1,1.17-1.16A1.16,1.16,0,0,1,49.12,60.46Z" transform="translate(-17.85 -2)"/></svg>