<svg width="19" height="28" viewBox="0 0 19 28" fill="none" xmlns="http://www.w3.org/2000/svg">
<path d="M5.08984 21.5195H13.5742C13.9727 21.5195 14.2305 21.2734 14.2305 20.875V19C14.2305 16.1641 18.3438 14.3359 18.3438 9.27344C18.3438 3.94141 14.7344 0.378906 9.33203 0.378906C3.92969 0.378906 0.332031 3.94141 0.332031 9.27344C0.332031 14.3359 4.44531 16.1641 4.44531 19V20.875C4.44531 21.2734 4.70312 21.5195 5.08984 21.5195ZM6.19141 19.0234C6.19141 15.5781 2.10156 13.7383 2.10156 9.28516C2.10156 4.99609 4.99609 2.14844 9.33203 2.14844C13.6797 2.14844 16.5742 4.99609 16.5742 9.28516C16.5742 13.7383 12.4844 15.5781 12.4844 19.0234V19.75H6.19141V19.0234ZM5.53516 24.6836H13.1406C13.7383 24.6836 14.2305 24.1914 14.2305 23.582C14.2305 22.9727 13.7383 22.4805 13.1406 22.4805H5.53516C4.9375 22.4805 4.44531 22.9727 4.44531 23.582C4.44531 24.1914 4.9375 24.6836 5.53516 24.6836ZM9.33203 27.5078C10.9492 27.5078 12.0977 26.7695 12.2148 25.6328H6.46094C6.56641 26.7695 7.71484 27.5078 9.33203 27.5078Z" fill="#212121"/>
</svg>
