<svg width="36" height="23" viewBox="0 0 36 23" fill="none" xmlns="http://www.w3.org/2000/svg">
<path d="M11.5898 22.8672H15.4805C16.4531 22.8672 17.0742 22.2227 17.0742 21.4141C17.0742 20.9688 16.8867 20.5117 16.4648 20.0547C15.9492 19.4922 15.6328 18.8359 15.6328 18.1562C15.6328 16.7969 16.6055 15.6836 18.1406 15.6836C19.6758 15.6836 20.6484 16.7969 20.6484 18.1562C20.6484 18.8359 20.3203 19.4922 19.8047 20.0547C19.3945 20.5117 19.207 20.9688 19.207 21.4141C19.207 22.2227 19.8281 22.8672 20.8008 22.8672H24.6797C27.0352 22.8672 28.2656 21.6602 28.2656 19.3398V15.2031C28.2656 15.0156 28.3945 14.9219 28.6055 15.0742C29.3555 15.6016 30.2109 15.9766 31.1836 15.9766C33.3984 15.9766 35.3906 14.1953 35.3906 11.582C35.3906 8.98047 33.3984 7.19922 31.1836 7.19922C30.2109 7.19922 29.3555 7.57422 28.6055 8.10156C28.3945 8.25391 28.2656 8.16016 28.2656 7.97266V3.74219C28.2656 1.42188 27.0352 0.214844 24.6797 0.214844H20.8008C19.8281 0.214844 19.207 0.859375 19.207 1.66797C19.207 2.11328 19.3945 2.57031 19.8047 3.02734C20.3203 3.60156 20.6484 4.24609 20.6484 4.9375C20.6484 6.27344 19.6523 7.39844 18.1406 7.39844C16.6289 7.39844 15.6328 6.27344 15.6328 4.9375C15.6328 4.24609 15.9492 3.60156 16.4648 3.02734C16.8867 2.57031 17.0742 2.11328 17.0742 1.66797C17.0742 0.859375 16.4531 0.214844 15.4805 0.214844H11.5898C9.24609 0.214844 8.01562 1.42188 8.01562 3.74219V7.97266C8.01562 8.16016 7.88672 8.25391 7.67578 8.10156C6.92578 7.57422 6.07031 7.19922 5.08594 7.19922C2.88281 7.19922 0.890625 8.98047 0.890625 11.582C0.890625 14.1953 2.88281 15.9766 5.08594 15.9766C6.07031 15.9766 6.92578 15.6016 7.67578 15.0742C7.88672 14.9219 8.01562 15.0156 8.01562 15.2031V19.3398C8.01562 21.6602 9.24609 22.8672 11.5898 22.8672ZM11.625 20.9805C10.5469 20.9805 9.90234 20.3711 9.90234 19.2461V14.2539C9.90234 13.2695 9.25781 12.6484 8.44922 12.6484C8.00391 12.6484 7.54688 12.8359 7.08984 13.2578C6.51562 13.7734 5.87109 14.1016 5.17969 14.1016C3.84375 14.1016 2.71875 13.1055 2.71875 11.582C2.71875 10.0703 3.84375 9.07422 5.17969 9.07422C5.87109 9.07422 6.51562 9.40234 7.08984 9.91797C7.54688 10.3398 8.00391 10.5273 8.44922 10.5273C9.25781 10.5273 9.90234 9.90625 9.90234 8.92188V3.83594C9.90234 2.72266 10.5469 2.10156 11.625 2.10156H14.3203C14.8711 2.10156 14.6953 2.38281 14.5547 2.60547C14.0977 3.32031 13.7578 4.10547 13.7578 5.03125C13.7578 7.23438 15.5273 9.22656 18.1406 9.22656C20.7539 9.22656 22.5234 7.23438 22.5234 5.03125C22.5234 4.10547 22.1836 3.32031 21.7266 2.60547C21.5859 2.38281 21.4102 2.10156 21.9609 2.10156H24.6562C25.7344 2.10156 26.3789 2.72266 26.3789 3.83594V8.92188C26.3789 9.90625 27.0234 10.5273 27.832 10.5273C28.2773 10.5273 28.7344 10.3398 29.1914 9.91797C29.7539 9.40234 30.4102 9.07422 31.0898 9.07422C32.4375 9.07422 33.5625 10.0703 33.5625 11.582C33.5625 13.1055 32.4375 14.1016 31.0898 14.1016C30.4102 14.1016 29.7539 13.7734 29.1914 13.2578C28.7344 12.8359 28.2773 12.6484 27.832 12.6484C27.0234 12.6484 26.3789 13.2695 26.3789 14.2539V19.2461C26.3789 20.3711 25.7344 20.9805 24.6562 20.9805H21.9609C21.4102 20.9805 21.5859 20.6992 21.7266 20.4766C22.1836 19.7617 22.5234 18.9766 22.5234 18.0625C22.5234 15.8242 20.7773 13.8555 18.1406 13.8555C15.5039 13.8555 13.7578 15.8242 13.7578 18.0625C13.7578 18.9766 14.0977 19.7617 14.5547 20.4766C14.6953 20.6992 14.8711 20.9805 14.3203 20.9805H11.625Z" fill="#212121"/>
</svg>
