<svg width="24" height="25" viewBox="0 0 24 25" fill="none" xmlns="http://www.w3.org/2000/svg">
<path d="M11.9531 24.5117C18.4922 24.5117 23.9062 19.0859 23.9062 12.5586C23.9062 6.01953 18.4805 0.605469 11.9414 0.605469C5.41406 0.605469 0 6.01953 0 12.5586C0 19.0859 5.42578 24.5117 11.9531 24.5117ZM11.9531 22.5195C6.42188 22.5195 2.00391 18.0898 2.00391 12.5586C2.00391 7.02734 6.41016 2.59766 11.9414 2.59766C17.4727 2.59766 21.9023 7.02734 21.9141 12.5586C21.9258 18.0898 17.4844 22.5195 11.9531 22.5195ZM8.55469 11.4922C9.24609 11.4922 9.82031 10.8828 9.82031 10.0273C9.82031 9.17188 9.24609 8.5625 8.55469 8.5625C7.86328 8.5625 7.30078 9.17188 7.30078 10.0273C7.30078 10.8828 7.86328 11.4922 8.55469 11.4922ZM15.3984 11.4922C16.0898 11.4922 16.6641 10.8828 16.6641 10.0273C16.6641 9.17188 16.0898 8.5625 15.3984 8.5625C14.7188 8.5625 14.1445 9.17188 14.1445 10.0273C14.1445 10.8828 14.7188 11.4922 15.3984 11.4922ZM7.85156 16.0273C7.85156 16.8008 9.49219 18.4297 11.9414 18.4297C14.3906 18.4297 16.0312 16.8008 16.0312 16.0273C16.0312 15.7461 15.7617 15.6172 15.5156 15.7344C14.6602 16.2031 13.6406 16.7305 11.9414 16.7305C10.2422 16.7305 9.22266 16.1914 8.37891 15.7344C8.12109 15.6172 7.85156 15.7461 7.85156 16.0273Z" fill="#212121"/>
</svg>
